<svg width="800" height="800" viewBox="0 0 800 800" fill="none" xmlns="http://www.w3.org/2000/svg">
<rect width="800" height="800" rx="400" fill="#1A535C"/>
<path d="M414.127 574H369.809L497.991 224.909H541.627L669.809 574H625.491L521.173 280.136H518.445L414.127 574ZM430.491 437.636H609.127V475.136H430.491V437.636Z" fill="#F7FFF7"/>
<line x1="524.754" y1="457" x2="514.693" y2="457" stroke="#1A535C" stroke-width="40"/>
<line x1="524.754" y1="260" x2="514.693" y2="260" stroke="#1A535C" stroke-width="70"/>
<line x1="716.922" y1="555" x2="631.922" y2="555" stroke="#F7FFF7" stroke-width="38"/>
<path d="M685.691 574.102L692.215 501.959L758.568 574.528L685.691 574.102Z" fill="#F7FFF7"/>
<path d="M149.969 262.409V224.909H411.788V262.409H302.015V574H259.742V262.409H149.969Z" fill="#F7FFF7"/>
<rect x="257" y="520" width="100" height="116" fill="#1A535C"/>
<line x1="414" y1="555" x2="351" y2="555" stroke="#F7FFF7" stroke-width="42"/>
<path d="M281.071 511C280.764 522.881 281.252 530.193 286.652 538.306C299.401 557.458 318.942 554.885 340 554.885" stroke="#F7FFF7" stroke-width="42"/>
<line x1="350.061" y1="555" x2="340" y2="555" stroke="#1A535C" stroke-width="42"/>
<line x1="350.061" y1="244" x2="340" y2="244" stroke="#1A535C" stroke-width="40"/>
<line x1="190.725" y1="245" x2="90.7251" y2="245" stroke="#1A535C" stroke-width="40"/>
<path d="M192.5 244.071C180.619 243.764 173.307 244.252 165.194 249.652C146.042 262.401 148.615 281.942 148.615 303" stroke="#F7FFF7" stroke-width="37.5"/>
<path d="M105 359.429C116.881 359.736 124.193 359.248 132.306 353.848C151.458 341.099 148.885 321.558 148.885 300.5" stroke="#F7FFF7" stroke-width="37.5"/>
<path d="M108.022 340.865L114.635 405.741L42.418 340.158L108.022 340.865Z" fill="#F7FFF7"/>
</svg>
