<svg width="800" height="800" viewBox="0 0 800 800" fill="none" xmlns="http://www.w3.org/2000/svg">
<rect width="800" height="800" rx="400" fill="white"/>
<path d="M681.91 533.121L684.849 501.212L721.098 542.095L750 573.506L681.91 575.001V533.121Z" fill="#4FD1C5"/>
<path d="M350.768 533.121H383.588L494.785 225H511.441V289.815L460.006 436.895H511.441V474.289H447.27L411.51 575.001H350.768V533.121Z" fill="#4FD1C5"/>
<path d="M681.91 533.121H649.09L537.893 225H521.238V289.815L572.672 436.895H521.238V474.289H585.409L621.168 575.001H681.91V533.121Z" fill="#4FD1C5"/>
<path d="M194.997 225H339.994V262.892L302.765 262.393V519.161H260.638V262.393L194.997 262.892V225Z" fill="#4FD1C5"/>
<path d="M356.649 225H416.411V262.892H356.649V225Z" fill="#4FD1C5"/>
<path d="M260.638 518.164H302.765C302.765 518.164 302.765 520.158 303.255 522.152C303.745 524.146 304.235 525.642 307.174 528.634C310.113 531.625 317.951 533.121 329.217 533.121C340.484 533.121 339.994 533.121 339.994 533.121V575.001C339.994 575.001 339.994 575.001 315.501 575.001C291.009 575.001 277.783 560.543 273.374 555.557C268.965 550.571 260.638 539.602 260.638 522.152C260.638 504.702 260.638 518.164 260.638 518.164Z" fill="#4FD1C5"/>
<path d="M50 341.667H112.701L119.07 405.485L79.3913 368.59L50 341.667Z" fill="#4FD1C5"/>
<path d="M206.481 262.884C179.912 262.884 171.484 293.807 171.484 307.265C171.484 382.052 133.056 315.754 134.254 288.818C134.255 252.92 164.388 225 191.078 225C289.539 225 206.481 235.354 206.481 262.884Z" fill="#4FD1C5"/>
<path d="M170.227 329.203C166.655 355.627 148.295 379.06 121.241 379.06C94.1873 379.06 98.2182 369.203 98.2182 341.667C134.255 341.667 134.255 341.667 134.255 288.319C167.565 288.319 173.933 301.781 170.227 329.203Z" fill="#4FD1C5"/>
</svg>
