<svg width="800" height="400" viewBox="0 0 800 400" fill="none" xmlns="http://www.w3.org/2000/svg">
<path d="M722.183 352.138L725.542 315.671L766.97 362.395L800 398.292L722.183 400.002V352.138Z" fill="#4ECDC4"/>
<path d="M343.735 352.138H381.244L508.326 0H527.36V74.0744L468.578 242.166H527.36V284.901H454.022L413.154 400.002H343.735V352.138Z" fill="#4ECDC4"/>
<path d="M722.183 352.138H684.674L557.592 0H538.557V74.0744L597.34 242.166H538.557V284.901H611.895L652.763 400.002H722.183V352.138Z" fill="#4ECDC4"/>
<path d="M165.711 0H331.422V43.305L288.874 42.7352V336.184H240.729V42.7352L165.711 43.305V0Z" fill="#1A535C"/>
<path d="M350.456 0H418.756V43.305H350.456V0Z" fill="#1A535C"/>
<path d="M240.729 335.044H288.874C288.874 335.044 288.874 337.323 289.434 339.602C289.994 341.882 290.554 343.591 293.913 347.01C297.272 350.429 306.229 352.138 319.105 352.138C331.982 352.138 331.422 352.138 331.422 352.138V400.002C331.422 400.002 331.422 400.002 303.43 400.002C275.438 400.002 260.323 383.477 255.284 377.779C250.246 372.081 240.729 359.545 240.729 339.602C240.729 319.659 240.729 335.044 240.729 335.044Z" fill="#1A535C"/>
<path d="M0 133.334H71.6588L78.9366 206.269L33.5901 164.103L0 133.334Z" fill="#1A535C"/>
<path d="M178.835 43.2959C148.471 43.2959 138.839 78.636 138.839 94.0175C138.839 179.488 94.921 103.719 96.2906 72.9348C96.2916 31.909 130.729 0 161.232 0C273.759 0 178.835 11.8332 178.835 43.2959Z" fill="#1A535C"/>
<path d="M137.402 119.089C133.32 149.288 112.337 176.069 81.4186 176.069C50.4998 176.069 55.1066 164.803 55.1066 133.334C96.2915 133.334 96.2915 133.334 96.2915 72.365C134.36 72.365 141.638 87.7496 137.402 119.089Z" fill="#1A535C"/>
</svg>
